<svg viewBox="0 0 150 150"
  xmlns="http://www.w3.org/2000/svg">
  <circle cx="75" cy="75" r="75" fill="#fff"/>
  <g>
    <path d="M75,38.8c-0.1,0-0.3,0-0.4-0.1l-10.3-5c-0.3-0.2-0.6-0.5-0.6-0.9c0-0.4,0.2-0.7,0.6-0.9l10.3-5c0.3-0.1,0.6-0.1,0.9,0 l10.3,5c0.3,0.2,0.6,0.5,0.6,0.9c0,0.4-0.2,0.7-0.6,0.9l-10.3,5C75.3,38.8,75.2,38.8,75,38.8z M67.1,32.8l8,3.9l8-3.9l-8-3.9 L67.1,32.8z"/>
    <path d="M75,51c-0.1,0-0.3,0-0.4-0.1l-10.3-5c-0.3-0.2-0.6-0.5-0.6-0.9V32.8c0-0.3,0.2-0.7,0.5-0.8c0.3-0.2,0.7-0.2,1-0.1l9.8,4.8 l9.8-4.8c0.3-0.1,0.7-0.1,1,0.1s0.5,0.5,0.5,0.8V45c0,0.4-0.2,0.7-0.6,0.9l-10.3,5C75.3,51,75.2,51,75,51z M65.8,44.4l9.3,4.5 l9.3-4.5v-10l-8.8,4.3c-0.3,0.1-0.6,0.1-0.9,0l-8.8-4.3L65.8,44.4L65.8,44.4z"/>
    <path d="M75,51c-0.6,0-1-0.4-1-1V37.8c0-0.6,0.4-1,1-1s1,0.4,1,1V50C76,50.6,75.6,51,75,51z"/>
    <path d="M74.9,111c-0.1,0-0.3,0-0.4-0.1l-10.3-5c-0.3-0.2-0.6-0.5-0.6-0.9s0.2-0.7,0.6-0.9l10.3-5c0.3-0.1,0.6-0.1,0.9,0l10.3,5 c0.3,0.2,0.6,0.5,0.6,0.9s-0.2,0.7-0.6,0.9l-10.3,5C75.2,111,75.1,111,74.9,111z M67,105l8,3.9l8-3.9l-8-3.9L67,105z"/>
    <path d="M74.9,123.2c-0.1,0-0.3,0-0.4-0.1l-10.3-5c-0.3-0.2-0.6-0.5-0.6-0.9V105c0-0.3,0.2-0.7,0.5-0.8c0.3-0.2,0.7-0.2,1-0.1 l9.8,4.8l9.8-4.8c0.3-0.1,0.7-0.1,1,0.1s0.5,0.5,0.5,0.8v12.2c0,0.4-0.2,0.7-0.6,0.9l-10.3,5C75.2,123.2,75.1,123.2,74.9,123.2z  M65.7,116.6l9.3,4.5l9.3-4.5v-10l-8.8,4.3c-0.3,0.1-0.6,0.1-0.9,0l-8.9-4.3V116.6z"/>
    <path d="M74.9,123.2c-0.6,0-1-0.4-1-1V110c0-0.6,0.4-1,1-1s1,0.4,1,1v12.2C75.9,122.8,75.5,123.2,74.9,123.2z"/>
    <path d="M43.5,92.8c-0.1,0-0.3,0-0.4-0.1l-10.3-5c-0.3-0.2-0.6-0.5-0.6-0.9s0.2-0.7,0.6-0.9l10.3-5c0.3-0.1,0.6-0.1,0.9,0l10.3,5 c0.3,0.2,0.6,0.5,0.6,0.9s-0.2,0.7-0.6,0.9l-10.3,5C43.8,92.7,43.7,92.8,43.5,92.8z M35.5,86.8l8,3.9l8-3.9l-8-3.9L35.5,86.8z"/>
    <path d="M43.5,105c-0.1,0-0.3,0-0.4-0.1l-10.3-5c-0.3-0.2-0.6-0.5-0.6-0.9V86.8c0-0.3,0.2-0.7,0.5-0.8c0.3-0.2,0.7-0.2,1-0.1 l9.8,4.8l9.8-4.8c0.3-0.2,0.7-0.1,1,0.1s0.5,0.5,0.5,0.8V99c0,0.4-0.2,0.7-0.6,0.9l-10.3,5C43.8,105,43.7,105,43.5,105z M34.2,98.4 l9.3,4.5l9.3-4.5v-10l-8.8,4.3c-0.3,0.1-0.6,0.1-0.9,0l-8.9-4.3V98.4z"/>
    <path d="M43.5,105c-0.6,0-1-0.4-1-1V91.8c0-0.6,0.4-1,1-1s1,0.4,1,1V104C44.5,104.6,44.1,105,43.5,105z"/>
    <path d="M106.4,92.8c-0.1,0-0.3,0-0.4-0.1l-10.3-5c-0.3-0.2-0.6-0.5-0.6-0.9s0.2-0.7,0.6-0.9l10.3-5c0.3-0.1,0.6-0.1,0.9,0l10.2,5 c0.3,0.2,0.6,0.5,0.6,0.9s-0.2,0.7-0.6,0.9l-10.2,5C106.8,92.7,106.7,92.8,106.4,92.8z M98.5,86.8l8,3.9l8-3.9l-8-3.9L98.5,86.8z" />
    <path d="M106.4,105c-0.1,0-0.3,0-0.4-0.1l-10.3-5c-0.3-0.2-0.6-0.5-0.6-0.9V86.8c0-0.3,0.2-0.7,0.5-0.8c0.3-0.2,0.7-0.2,1-0.1 l9.8,4.8l9.8-4.8c0.3-0.2,0.7-0.1,1,0.1s0.5,0.5,0.5,0.8V99c0,0.4-0.2,0.7-0.6,0.9l-10.2,5C106.8,105,106.7,105,106.4,105z  M97.2,98.4l9.3,4.5l9.2-4.5v-10l-8.8,4.3c-0.3,0.1-0.6,0.1-0.9,0l-8.8-4.3V98.4L97.2,98.4z"/>
    <path d="M106.4,105c-0.6,0-1-0.4-1-1V91.8c0-0.6,0.4-1,1-1s1,0.4,1,1V104C107.4,104.6,107,105,106.4,105z"/>
    <path d="M43.5,57c-0.1,0-0.3,0-0.4-0.1l-10.3-5c-0.3-0.2-0.6-0.5-0.6-0.9s0.2-0.7,0.6-0.9l10.3-5c0.3-0.1,0.6-0.1,0.9,0l10.3,5 c0.3,0.2,0.6,0.5,0.6,0.9s-0.2,0.7-0.6,0.9l-10.3,5C43.8,57,43.7,57,43.5,57z M35.5,51l8,3.9l8-3.9l-8-3.9L35.5,51z"/>
    <path d="M43.5,69.2c-0.1,0-0.3,0-0.4-0.1l-10.3-5c-0.3-0.2-0.6-0.5-0.6-0.9V51c0-0.3,0.2-0.7,0.5-0.8c0.3-0.2,0.7-0.2,1-0.1 l9.8,4.8l9.8-4.8c0.3-0.2,0.7-0.1,1,0.1c0.3,0.2,0.5,0.5,0.5,0.8v12.2c0,0.4-0.2,0.7-0.6,0.9l-10.3,5 C43.8,69.2,43.7,69.2,43.5,69.2z M34.2,62.6l9.3,4.5l9.3-4.5v-10l-8.8,4.3c-0.3,0.1-0.6,0.1-0.9,0l-8.8-4.3 C34.2,52.6,34.2,62.6,34.2,62.6z"/>
    <path d="M43.5,69.2c-0.6,0-1-0.4-1-1V56c0-0.6,0.4-1,1-1s1,0.4,1,1v12.2C44.5,68.8,44.1,69.2,43.5,69.2z"/>
    <path d="M106.4,57c-0.1,0-0.3,0-0.4-0.1l-10.2-5c-0.3-0.2-0.6-0.5-0.6-0.9s0.2-0.7,0.6-0.9l10.3-5c0.3-0.1,0.6-0.1,0.9,0l10.2,5 c0.3,0.2,0.6,0.5,0.6,0.9s-0.2,0.7-0.6,0.9l-10.2,5C106.8,57,106.7,57,106.4,57z M98.5,51l8,3.9l8-3.9l-8-3.9L98.5,51z"/>
    <path d="M106.4,69.2c-0.1,0-0.3,0-0.4-0.1l-10.3-5c-0.3-0.2-0.6-0.5-0.6-0.9V51c0-0.3,0.2-0.7,0.5-0.8c0.3-0.2,0.7-0.2,1-0.1 l9.8,4.8l9.8-4.8c0.3-0.1,0.7-0.1,1,0.1c0.3,0.2,0.5,0.5,0.5,0.8v12.2c0,0.4-0.2,0.7-0.6,0.9l-10.2,5 C106.8,69.2,106.7,69.2,106.4,69.2z M97.2,62.6l9.3,4.5l9.2-4.5v-10l-8.8,4.3c-0.3,0.1-0.6,0.1-0.9,0l-8.8-4.3L97.2,62.6L97.2,62.6 z"/>
    <path d="M106.4,69.2c-0.6,0-1-0.4-1-1V56c0-0.6,0.4-1,1-1s1,0.4,1,1v12.2C107.4,68.8,107,69.2,106.4,69.2z"/>
    <path d="M64.8,105.8c-0.2,0-0.3,0-0.5-0.1l-11-5.9c-0.5-0.3-0.7-0.9-0.4-1.4s0.9-0.7,1.4-0.4l11,5.9c0.5,0.3,0.7,0.9,0.4,1.4 C65.4,105.6,65.1,105.8,64.8,105.8z"/>
    <path d="M43.5,82.8c-0.6,0-1-0.4-1-1V68.2c0-0.6,0.4-1,1-1s1,0.4,1,1v13.6C44.5,82.4,44.1,82.8,43.5,82.8z"/>
    <path d="M53.7,52.1c-0.4,0-0.7-0.2-0.9-0.5c-0.3-0.5-0.1-1.1,0.4-1.4l11-5.9c0.5-0.3,1.1-0.1,1.4,0.4c0.3,0.5,0.1,1.1-0.4,1.4 l-11,5.9C54,52.1,53.8,52.1,53.7,52.1z"/>
    <path d="M96.2,52.1c-0.2,0-0.3,0-0.5-0.1l-11-5.9c-0.5-0.3-0.7-0.9-0.4-1.4c0.3-0.5,0.9-0.7,1.4-0.4l11,5.9 c0.5,0.3,0.7,0.9,0.4,1.4C96.9,52,96.5,52.1,96.2,52.1z"/>
    <path d="M106.4,82.8c-0.6,0-1-0.4-1-1V68.2c0-0.6,0.4-1,1-1s1,0.4,1,1v13.6C107.4,82.4,107,82.8,106.4,82.8z"/>
    <path d="M85.2,105.8c-0.4,0-0.7-0.2-0.9-0.5c-0.3-0.5-0.1-1.1,0.4-1.4l11-5.9c0.5-0.3,1.1-0.1,1.4,0.4s0.1,1.1-0.4,1.4l-11,5.9 C85.5,105.8,85.3,105.8,85.2,105.8z"/>
    <path d="M74.9,74.9c-0.1,0-0.3,0-0.4-0.1l-10.3-5c-0.3-0.2-0.6-0.5-0.6-0.9s0.2-0.7,0.6-0.9l10.3-5c0.3-0.1,0.6-0.1,0.9,0l10.3,5 c0.3,0.2,0.6,0.5,0.6,0.9s-0.2,0.7-0.6,0.9l-10.3,5C75.2,74.9,75.2,74.9,74.9,74.9z M67.1,68.9l8,3.9l8-3.9L75,65L67.1,68.9z"/>
    <path d="M74.9,87.1c-0.1,0-0.3,0-0.4-0.1l-10.3-5c-0.3-0.2-0.6-0.5-0.6-0.9V68.9c0-0.3,0.2-0.7,0.5-0.8c0.3-0.1,0.7-0.2,1-0.1 l9.8,4.8l9.8-4.8c0.3-0.2,0.7-0.1,1,0.1c0.3,0.2,0.5,0.5,0.5,0.8v12.2c0,0.4-0.2,0.7-0.6,0.9l-10.3,5 C75.2,87.1,75.2,87.1,74.9,87.1z M65.8,80.5l9.3,4.5l9.3-4.5v-10l-8.8,4.3c-0.3,0.1-0.6,0.1-0.9,0l-8.8-4.3v10H65.8z"/>
    <path d="M74.9,87.1c-0.6,0-1-0.4-1-1V73.9c0-0.6,0.4-1,1-1s1,0.4,1,1v12.2C75.9,86.7,75.5,87.1,74.9,87.1z"/>
    <path d="M53.8,87.8c-0.4,0-0.7-0.2-0.9-0.5c-0.3-0.5-0.1-1.1,0.4-1.3l11-5.7c0.5-0.3,1.1-0.1,1.3,0.4c0.3,0.5,0.1,1.1-0.4,1.3 l-11,5.7C54.1,87.8,54,87.8,53.8,87.8z"/>
    <path d="M96.2,88c-0.2,0-0.3,0-0.5-0.1l-11-5.9c-0.5-0.3-0.7-0.9-0.4-1.4c0.3-0.5,0.9-0.7,1.4-0.4l11,5.9c0.5,0.3,0.7,0.9,0.4,1.4 C96.9,87.8,96.5,88,96.2,88z"/>
    <path d="M85.2,69.9c-0.4,0-0.7-0.2-0.9-0.5c-0.3-0.5-0.1-1.1,0.4-1.4l11-5.9c0.5-0.3,1.1-0.1,1.4,0.4s0.1,1.1-0.4,1.4l-11,5.9 C85.5,69.9,85.3,69.9,85.2,69.9z"/>
    <path d="M64.8,69.9c-0.2,0-0.3,0-0.5-0.1l-11-5.7c-0.5-0.3-0.7-0.9-0.4-1.3c0.3-0.5,0.9-0.7,1.3-0.4l11,5.7 c0.5,0.3,0.7,0.9,0.4,1.3C65.4,69.7,65.1,69.9,64.8,69.9z"/>
  </g>
</svg>
